<?xml version="1.0" encoding="UTF-8"?>
<svg xmlns="http://www.w3.org/2000/svg" xmlns:xlink="http://www.w3.org/1999/xlink" width="1503pt" height="492.13pt" viewBox="0 0 1503 492.13" version="1.1">
<defs>
<clipPath id="clip1">
  <path d="M 819 0 L 1154 0 L 1154 492.128906 L 819 492.128906 Z M 819 0 "/>
</clipPath>
<clipPath id="clip2">
  <path d="M 1184 123 L 1503 123 L 1503 492.128906 L 1184 492.128906 Z M 1184 123 "/>
</clipPath>
</defs>
<g id="surface1">
<g clip-path="url(#clip1)" clip-rule="nonzero">
<path style=" stroke:none;fill-rule:nonzero;fill:#ffffff;fill-opacity:1;" d="M 985.8125 184.539063 C 923.101563 184.539063 891.058594 233.898438 891.058594 308.25 C 891.058594 378.539063 925.710938 431.300781 985.8125 431.300781 C 1053.789063 431.300781 1079.269531 369.097656 1079.269531 308.25 C 1079.230469 244.726563 1047.191406 184.539063 985.792969 184.539063 M 819.183594 0 L 893.675781 0 L 893.675781 178.449219 L 894.988281 178.449219 C 915.25 144.660156 957.71875 123.695313 995.628906 123.695313 C 1102.128906 123.695313 1153.769531 207.546875 1153.769531 309.628906 C 1153.769531 403.5625 1108.039063 492.128906 1008.03125 492.128906 C 962.292969 492.128906 913.28125 480.660156 891.050781 434.679688 L 889.761719 434.679688 L 889.761719 482.691406 L 819.175781 482.691406 L 819.175781 0.0078125 L 819.183594 0 "/>
</g>
<g clip-path="url(#clip2)" clip-rule="nonzero">
<path style=" stroke:none;fill-rule:nonzero;fill:#ffffff;fill-opacity:1;" d="M 1428.511719 250.136719 C 1422.621094 207.546875 1392.570313 184.542969 1351.398438 184.542969 C 1312.828125 184.542969 1258.601563 205.511719 1258.601563 311.652344 C 1258.601563 369.792969 1283.421875 431.320313 1348.128906 431.320313 C 1391.25 431.320313 1421.300781 401.539063 1428.511719 351.515625 L 1503 351.515625 C 1489.269531 442.097656 1435.039063 492.128906 1348.128906 492.128906 C 1242.261719 492.128906 1184.109375 414.402344 1184.109375 311.652344 C 1184.109375 206.195313 1239.648438 123.71875 1350.75 123.71875 C 1429.160156 123.71875 1495.828125 164.273438 1503 250.136719 L 1428.511719 250.136719 "/>
</g>
<path style=" stroke:none;fill-rule:nonzero;fill:#ffffff;fill-opacity:1;" d="M 558.738281 481.644531 L 0 481.644531 L 260.921875 0 L 819.664063 0 L 558.738281 481.644531 "/>
</g>
</svg>
